<svg width="61" height="34" viewBox="0 0 61 34" fill="none" xmlns="http://www.w3.org/2000/svg">
<g clip-path="url(#clip0_874_1986)">
<mask id="mask0_874_1986" style="mask-type:alpha" maskUnits="userSpaceOnUse" x="21" y="0" width="20" height="34">
<path d="M21.9898 33.3594V0.939338H29.9147C32.6631 0.939338 34.7977 1.29956 36.3187 2.02001C37.8663 2.71377 38.9603 3.82112 39.6007 5.34206C40.2411 6.83632 40.5613 8.7575 40.5613 11.1056V22.9129C40.5613 25.3144 40.2411 27.289 39.6007 28.8366C38.9603 30.3842 37.8797 31.5316 36.3587 32.2787C34.8645 32.9992 32.7698 33.3594 30.0748 33.3594H21.9898ZM28.5939 28.7565H29.9948C31.2222 28.7565 32.0894 28.5697 32.5964 28.1962C33.13 27.7959 33.4636 27.2222 33.597 26.4751C33.7304 25.7013 33.7971 24.7541 33.7971 23.6334V10.2651C33.7971 9.14441 33.7037 8.25052 33.517 7.58344C33.3569 6.88968 33.01 6.3827 32.4763 6.0625C31.9693 5.74231 31.1288 5.58221 29.9548 5.58221H28.5939V28.7565Z" fill="#243B6B"/>
<path d="M21.9898 33.3594V0.939338H29.9147C32.6631 0.939338 34.7977 1.29956 36.3187 2.02001C37.8663 2.71377 38.9603 3.82112 39.6007 5.34206C40.2411 6.83632 40.5613 8.7575 40.5613 11.1056V22.9129C40.5613 25.3144 40.2411 27.289 39.6007 28.8366C38.9603 30.3842 37.8797 31.5316 36.3587 32.2787C34.8645 32.9992 32.7698 33.3594 30.0748 33.3594H21.9898ZM28.5939 28.7565H29.9948C31.2222 28.7565 32.0894 28.5697 32.5964 28.1962C33.13 27.7959 33.4636 27.2222 33.597 26.4751C33.7304 25.7013 33.7971 24.7541 33.7971 23.6334V10.2651C33.7971 9.14441 33.7037 8.25052 33.517 7.58344C33.3569 6.88968 33.01 6.3827 32.4763 6.0625C31.9693 5.74231 31.1288 5.58221 29.9548 5.58221H28.5939V28.7565Z" fill="url(#paint0_linear_874_1986)"/>
</mask>
<g mask="url(#mask0_874_1986)">
<path d="M21.9898 33.3594V0.939338H29.9147C32.6631 0.939338 34.7977 1.29956 36.3187 2.02001C37.8663 2.71377 38.9603 3.82112 39.6007 5.34206C40.2411 6.83632 40.5613 8.7575 40.5613 11.1056V22.9129C40.5613 25.3144 40.2411 27.289 39.6007 28.8366C38.9603 30.3842 37.8797 31.5316 36.3587 32.2787C34.8645 32.9992 32.7698 33.3594 30.0748 33.3594H21.9898ZM28.5939 28.7565H29.9948C31.2222 28.7565 32.0894 28.5697 32.5964 28.1962C33.13 27.7959 33.4636 27.2222 33.597 26.4751C33.7304 25.7013 33.7971 24.7541 33.7971 23.6334V10.2651C33.7971 9.14441 33.7037 8.25052 33.517 7.58344C33.3569 6.88968 33.01 6.3827 32.4763 6.0625C31.9693 5.74231 31.1288 5.58221 29.9548 5.58221H28.5939V28.7565Z" fill="#243B6B"/>
<path d="M21.9898 33.3594V0.939338H29.9147C32.6631 0.939338 34.7977 1.29956 36.3187 2.02001C37.8663 2.71377 38.9603 3.82112 39.6007 5.34206C40.2411 6.83632 40.5613 8.7575 40.5613 11.1056V22.9129C40.5613 25.3144 40.2411 27.289 39.6007 28.8366C38.9603 30.3842 37.8797 31.5316 36.3587 32.2787C34.8645 32.9992 32.7698 33.3594 30.0748 33.3594H21.9898ZM28.5939 28.7565H29.9948C31.2222 28.7565 32.0894 28.5697 32.5964 28.1962C33.13 27.7959 33.4636 27.2222 33.597 26.4751C33.7304 25.7013 33.7971 24.7541 33.7971 23.6334V10.2651C33.7971 9.14441 33.7037 8.25052 33.517 7.58344C33.3569 6.88968 33.01 6.3827 32.4763 6.0625C31.9693 5.74231 31.1288 5.58221 29.9548 5.58221H28.5939V28.7565Z" fill="url(#paint1_linear_874_1986)"/>
</g>
<mask id="mask1_874_1986" style="mask-type:alpha" maskUnits="userSpaceOnUse" x="0" y="0" width="20" height="34">
<path d="M8.92585 33.8397C6.73783 33.8397 5.00342 33.3861 3.72263 32.4788C2.44184 31.5449 1.52127 30.2374 0.960926 28.5564C0.427262 26.8487 0.160431 24.8741 0.160431 22.6327V11.786C0.160431 9.46461 0.440604 7.46337 1.00095 5.78233C1.5613 4.10129 2.53523 2.80716 3.92276 1.89993C5.33696 0.992705 7.24481 0.539091 9.64629 0.539091C11.9677 0.539091 13.7955 0.925997 15.1297 1.69981C16.4905 2.47362 17.4645 3.56763 18.0515 4.98184C18.6385 6.39604 18.932 8.07708 18.932 10.025V11.9061H12.488V9.62471C12.488 8.77085 12.4347 8.02372 12.328 7.38332C12.2212 6.71624 11.9677 6.19592 11.5675 5.82236C11.1939 5.44879 10.5802 5.26201 9.72634 5.26201C8.8458 5.26201 8.2054 5.48882 7.80516 5.94243C7.40491 6.39604 7.15142 6.98307 7.04469 7.70352C6.93795 8.39728 6.88459 9.14441 6.88459 9.9449V24.3138C6.88459 25.221 6.96464 26.0348 7.12473 26.7553C7.28483 27.4757 7.57835 28.0361 8.00528 28.4363C8.45889 28.8366 9.09929 29.0367 9.92647 29.0367C10.7536 29.0367 11.394 28.8232 11.8477 28.3963C12.3013 27.9694 12.6081 27.3957 12.7682 26.6752C12.955 25.9281 13.0484 25.0876 13.0484 24.1537V20.7116H9.88644V16.7091H19.0121V33.3594H14.6894L14.2892 30.4376C13.8622 31.4248 13.2218 32.2387 12.368 32.8791C11.5141 33.5195 10.3667 33.8397 8.92585 33.8397Z" fill="#243B6B"/>
<path d="M8.92585 33.8397C6.73783 33.8397 5.00342 33.3861 3.72263 32.4788C2.44184 31.5449 1.52127 30.2374 0.960926 28.5564C0.427262 26.8487 0.160431 24.8741 0.160431 22.6327V11.786C0.160431 9.46461 0.440604 7.46337 1.00095 5.78233C1.5613 4.10129 2.53523 2.80716 3.92276 1.89993C5.33696 0.992705 7.24481 0.539091 9.64629 0.539091C11.9677 0.539091 13.7955 0.925997 15.1297 1.69981C16.4905 2.47362 17.4645 3.56763 18.0515 4.98184C18.6385 6.39604 18.932 8.07708 18.932 10.025V11.9061H12.488V9.62471C12.488 8.77085 12.4347 8.02372 12.328 7.38332C12.2212 6.71624 11.9677 6.19592 11.5675 5.82236C11.1939 5.44879 10.5802 5.26201 9.72634 5.26201C8.8458 5.26201 8.2054 5.48882 7.80516 5.94243C7.40491 6.39604 7.15142 6.98307 7.04469 7.70352C6.93795 8.39728 6.88459 9.14441 6.88459 9.9449V24.3138C6.88459 25.221 6.96464 26.0348 7.12473 26.7553C7.28483 27.4757 7.57835 28.0361 8.00528 28.4363C8.45889 28.8366 9.09929 29.0367 9.92647 29.0367C10.7536 29.0367 11.394 28.8232 11.8477 28.3963C12.3013 27.9694 12.6081 27.3957 12.7682 26.6752C12.955 25.9281 13.0484 25.0876 13.0484 24.1537V20.7116H9.88644V16.7091H19.0121V33.3594H14.6894L14.2892 30.4376C13.8622 31.4248 13.2218 32.2387 12.368 32.8791C11.5141 33.5195 10.3667 33.8397 8.92585 33.8397Z" fill="url(#paint2_linear_874_1986)"/>
</mask>
<g mask="url(#mask1_874_1986)">
<path d="M8.92585 33.8397C6.73783 33.8397 5.00342 33.3861 3.72263 32.4788C2.44184 31.5449 1.52127 30.2374 0.960926 28.5564C0.427262 26.8487 0.160431 24.8741 0.160431 22.6327V11.786C0.160431 9.46461 0.440604 7.46337 1.00095 5.78233C1.5613 4.10129 2.53523 2.80716 3.92276 1.89993C5.33696 0.992705 7.24481 0.539091 9.64629 0.539091C11.9677 0.539091 13.7955 0.925997 15.1297 1.69981C16.4905 2.47362 17.4645 3.56763 18.0515 4.98184C18.6385 6.39604 18.932 8.07708 18.932 10.025V11.9061H12.488V9.62471C12.488 8.77085 12.4347 8.02372 12.328 7.38332C12.2212 6.71624 11.9677 6.19592 11.5675 5.82236C11.1939 5.44879 10.5802 5.26201 9.72634 5.26201C8.8458 5.26201 8.2054 5.48882 7.80516 5.94243C7.40491 6.39604 7.15142 6.98307 7.04469 7.70352C6.93795 8.39728 6.88459 9.14441 6.88459 9.9449V24.3138C6.88459 25.221 6.96464 26.0348 7.12473 26.7553C7.28483 27.4757 7.57835 28.0361 8.00528 28.4363C8.45889 28.8366 9.09929 29.0367 9.92647 29.0367C10.7536 29.0367 11.394 28.8232 11.8477 28.3963C12.3013 27.9694 12.6081 27.3957 12.7682 26.6752C12.955 25.9281 13.0484 25.0876 13.0484 24.1537V20.7116H9.88644V16.7091H19.0121V33.3594H14.6894L14.2892 30.4376C13.8622 31.4248 13.2218 32.2387 12.368 32.8791C11.5141 33.5195 10.3667 33.8397 8.92585 33.8397Z" fill="#243B6B"/>
<path d="M8.92585 33.8397C6.73783 33.8397 5.00342 33.3861 3.72263 32.4788C2.44184 31.5449 1.52127 30.2374 0.960926 28.5564C0.427262 26.8487 0.160431 24.8741 0.160431 22.6327V11.786C0.160431 9.46461 0.440604 7.46337 1.00095 5.78233C1.5613 4.10129 2.53523 2.80716 3.92276 1.89993C5.33696 0.992705 7.24481 0.539091 9.64629 0.539091C11.9677 0.539091 13.7955 0.925997 15.1297 1.69981C16.4905 2.47362 17.4645 3.56763 18.0515 4.98184C18.6385 6.39604 18.932 8.07708 18.932 10.025V11.9061H12.488V9.62471C12.488 8.77085 12.4347 8.02372 12.328 7.38332C12.2212 6.71624 11.9677 6.19592 11.5675 5.82236C11.1939 5.44879 10.5802 5.26201 9.72634 5.26201C8.8458 5.26201 8.2054 5.48882 7.80516 5.94243C7.40491 6.39604 7.15142 6.98307 7.04469 7.70352C6.93795 8.39728 6.88459 9.14441 6.88459 9.9449V24.3138C6.88459 25.221 6.96464 26.0348 7.12473 26.7553C7.28483 27.4757 7.57835 28.0361 8.00528 28.4363C8.45889 28.8366 9.09929 29.0367 9.92647 29.0367C10.7536 29.0367 11.394 28.8232 11.8477 28.3963C12.3013 27.9694 12.6081 27.3957 12.7682 26.6752C12.955 25.9281 13.0484 25.0876 13.0484 24.1537V20.7116H9.88644V16.7091H19.0121V33.3594H14.6894L14.2892 30.4376C13.8622 31.4248 13.2218 32.2387 12.368 32.8791C11.5141 33.5195 10.3667 33.8397 8.92585 33.8397Z" fill="url(#paint3_linear_874_1986)"/>
<g opacity="0.6">
<rect width="11.8051" height="19.2609" transform="matrix(-1 -8.74228e-08 -8.74228e-08 1 9.38672 18.833)" fill="#36B6A3"/>
<rect x="9.38672" y="18.833" width="20.5036" height="24.2315" transform="rotate(-180 9.38672 18.833)" fill="#FAE205"/>
<rect width="11.1838" height="19.2609" transform="matrix(1 0 0 -1 9.38672 16.9688)" fill="#E9354D"/>
<rect x="9.38672" y="13.2402" width="10.5624" height="24.8528" fill="#4F6EFB"/>
</g>
</g>
<mask id="mask2_874_1986" style="mask-type:alpha" maskUnits="userSpaceOnUse" x="43" y="0" width="19" height="34">
<path d="M52.6905 33.9793C50.6892 33.9793 49.0215 33.6191 47.6874 32.8987C46.3532 32.1515 45.3392 31.0442 44.6455 29.5766C43.9784 28.0824 43.5915 26.1879 43.4848 23.8931L49.1683 22.9325C49.2216 24.2667 49.3551 25.3874 49.5685 26.2946C49.8087 27.1751 50.1556 27.8422 50.6092 28.2958C51.0895 28.7228 51.6765 28.9362 52.3703 28.9362C53.2241 28.9362 53.7978 28.6694 54.0913 28.1357C54.4115 27.6021 54.5716 26.9883 54.5716 26.2946C54.5716 24.9337 54.2381 23.7997 53.571 22.8925C52.9306 21.9586 52.0767 21.0247 51.0094 20.0908L47.6473 17.1689C46.4466 16.155 45.4593 15.0076 44.6855 13.7268C43.9384 12.446 43.5648 10.8717 43.5648 9.0039C43.5648 6.33558 44.3386 4.29432 45.8862 2.88011C47.4606 1.43922 49.6085 0.718778 52.3302 0.718778C53.9579 0.718778 55.2921 0.98561 56.3327 1.51927C57.3733 2.05294 58.1738 2.77338 58.7342 3.68061C59.3212 4.56115 59.7215 5.53509 59.9349 6.60241C60.1751 7.64306 60.3218 8.6837 60.3752 9.72434L54.7317 10.5649C54.6783 9.57759 54.585 8.71038 54.4515 7.96325C54.3448 7.21613 54.1047 6.6291 53.7311 6.20217C53.3842 5.77524 52.8506 5.56177 52.1301 5.56177C51.3563 5.56177 50.7826 5.85529 50.409 6.44232C50.0355 7.00266 49.8487 7.62972 49.8487 8.32348C49.8487 9.47085 50.1022 10.4181 50.6092 11.1652C51.1428 11.8857 51.8633 12.6462 52.7705 13.4466L56.0525 16.3284C57.4134 17.5025 58.5741 18.85 59.5347 20.3709C60.522 21.8652 61.0156 23.7197 61.0156 25.9344C61.0156 27.4553 60.6687 28.8295 59.975 30.0569C59.2812 31.2843 58.3073 32.2449 57.0532 32.9387C55.8257 33.6325 54.3715 33.9793 52.6905 33.9793Z" fill="#1BA577"/>
</mask>
<g mask="url(#mask2_874_1986)">
<path d="M52.6905 33.9793C50.6892 33.9793 49.0215 33.6191 47.6874 32.8987C46.3532 32.1515 45.3392 31.0442 44.6455 29.5766C43.9784 28.0824 43.5915 26.1879 43.4848 23.8931L49.1683 22.9325C49.2216 24.2667 49.3551 25.3874 49.5685 26.2946C49.8087 27.1751 50.1556 27.8422 50.6092 28.2958C51.0895 28.7228 51.6765 28.9362 52.3703 28.9362C53.2241 28.9362 53.7978 28.6694 54.0913 28.1357C54.4115 27.6021 54.5716 26.9883 54.5716 26.2946C54.5716 24.9337 54.2381 23.7997 53.571 22.8925C52.9306 21.9586 52.0767 21.0247 51.0094 20.0908L47.6473 17.1689C46.4466 16.155 45.4593 15.0076 44.6855 13.7268C43.9384 12.446 43.5648 10.8717 43.5648 9.0039C43.5648 6.33558 44.3386 4.29432 45.8862 2.88011C47.4606 1.43922 49.6085 0.718778 52.3302 0.718778C53.9579 0.718778 55.2921 0.98561 56.3327 1.51927C57.3733 2.05294 58.1738 2.77338 58.7342 3.68061C59.3212 4.56115 59.7215 5.53509 59.9349 6.60241C60.1751 7.64306 60.3218 8.6837 60.3752 9.72434L54.7317 10.5649C54.6783 9.57759 54.585 8.71038 54.4515 7.96325C54.3448 7.21613 54.1047 6.6291 53.7311 6.20217C53.3842 5.77524 52.8506 5.56177 52.1301 5.56177C51.3563 5.56177 50.7826 5.85529 50.409 6.44232C50.0355 7.00266 49.8487 7.62972 49.8487 8.32348C49.8487 9.47085 50.1022 10.4181 50.6092 11.1652C51.1428 11.8857 51.8633 12.6462 52.7705 13.4466L56.0525 16.3284C57.4134 17.5025 58.5741 18.85 59.5347 20.3709C60.522 21.8652 61.0156 23.7197 61.0156 25.9344C61.0156 27.4553 60.6687 28.8295 59.975 30.0569C59.2812 31.2843 58.3073 32.2449 57.0532 32.9387C55.8257 33.6325 54.3715 33.9793 52.6905 33.9793Z" fill="#1BA577"/>
<rect x="-1.78516" y="-0.557617" width="54.2071" height="7.09855" stroke="white" stroke-width="0.645323"/>
<rect x="52.4219" y="-0.557617" width="40.6553" height="7.09855" stroke="white" stroke-width="0.645323"/>
<rect x="-1.78516" y="6.79883" width="54.2071" height="7.09855" fill="#358168"/>
<rect x="-1.78516" y="6.79883" width="54.2071" height="7.09855" fill="url(#paint4_linear_874_1986)"/>
<rect x="-1.78516" y="6.79883" width="54.2071" height="7.09855" stroke="white" stroke-width="0.645323"/>
<rect x="52.4219" y="6.79883" width="40.6553" height="7.09855" stroke="white" stroke-width="0.645323"/>
<rect x="-1.78516" y="14.1553" width="54.2071" height="6.45323" stroke="white" stroke-width="0.645323"/>
<rect x="52.4219" y="14.1553" width="40.6553" height="6.45323" fill="#358168"/>
<rect x="52.4219" y="14.1553" width="40.6553" height="6.45323" fill="url(#paint5_linear_874_1986)"/>
<rect x="52.4219" y="14.1553" width="40.6553" height="6.45323" stroke="white" stroke-width="0.645323"/>
<rect x="-1.78516" y="20.6094" width="54.2071" height="7.09855" stroke="white" stroke-width="0.645323"/>
<rect x="52.4219" y="20.6094" width="40.6553" height="7.09855" stroke="white" stroke-width="0.645323"/>
<rect x="-1.78516" y="27.708" width="54.2071" height="8.3892" stroke="white" stroke-width="0.645323"/>
<rect x="52.4219" y="27.708" width="40.6553" height="8.3892" stroke="white" stroke-width="0.645323"/>
</g>
<path d="M9.90625 18.9072C21.7956 18.9072 28.4616 18.9072 40.3509 18.9072" stroke="#1BA577" stroke-width="4.79036"/>
<mask id="mask3_874_1986" style="mask-type:alpha" maskUnits="userSpaceOnUse" x="9" y="4" width="41" height="30">
<rect x="9.37891" y="4.53711" width="39.7645" height="28.5807" fill="url(#paint6_linear_874_1986)"/>
</mask>
<g mask="url(#mask3_874_1986)">
<g filter="url(#filter0_d_874_1986)">
<path d="M9.90625 18.9072C23.2094 18.9072 30.6679 18.9072 43.971 18.9072" stroke="url(#paint7_linear_874_1986)" stroke-width="4.79036"/>
<path d="M34.7656 27.957L43.8284 18.8943L34.5096 9.57547" stroke="#16BD86" stroke-width="4.79036"/>
</g>
</g>
</g>
<defs>
<filter id="filter0_d_874_1986" x="7.44949" y="7.88184" width="42.2221" height="26.6821" filterUnits="userSpaceOnUse" color-interpolation-filters="sRGB">
<feFlood flood-opacity="0" result="BackgroundImageFix"/>
<feColorMatrix in="SourceAlpha" type="matrix" values="0 0 0 0 0 0 0 0 0 0 0 0 0 0 0 0 0 0 127 0" result="hardAlpha"/>
<feOffset dy="2.45676"/>
<feGaussianBlur stdDeviation="1.22838"/>
<feComposite in2="hardAlpha" operator="out"/>
<feColorMatrix type="matrix" values="0 0 0 0 0 0 0 0 0 0 0 0 0 0 0 0 0 0 0.25 0"/>
<feBlend mode="normal" in2="BackgroundImageFix" result="effect1_dropShadow_874_1986"/>
<feBlend mode="normal" in="SourceGraphic" in2="effect1_dropShadow_874_1986" result="shape"/>
</filter>
<linearGradient id="paint0_linear_874_1986" x1="19.4922" y1="15.3594" x2="42.4922" y2="15.3594" gradientUnits="userSpaceOnUse">
<stop stop-color="#4F6EFB"/>
<stop offset="1" stop-color="#4F6EFB" stop-opacity="0"/>
</linearGradient>
<linearGradient id="paint1_linear_874_1986" x1="19.4922" y1="15.3594" x2="42.4922" y2="15.3594" gradientUnits="userSpaceOnUse">
<stop stop-color="#4F6EFB"/>
<stop offset="1" stop-color="#4F6EFB" stop-opacity="0"/>
</linearGradient>
<linearGradient id="paint2_linear_874_1986" x1="-1.80078" y1="15.3594" x2="21.1992" y2="15.3594" gradientUnits="userSpaceOnUse">
<stop stop-color="#4F6EFB"/>
<stop offset="1" stop-color="#4F6EFB" stop-opacity="0"/>
</linearGradient>
<linearGradient id="paint3_linear_874_1986" x1="-1.80078" y1="15.3594" x2="21.1992" y2="15.3594" gradientUnits="userSpaceOnUse">
<stop stop-color="#4F6EFB"/>
<stop offset="1" stop-color="#4F6EFB" stop-opacity="0"/>
</linearGradient>
<linearGradient id="paint4_linear_874_1986" x1="-1.78516" y1="10.3481" x2="52.422" y2="10.3481" gradientUnits="userSpaceOnUse">
<stop stop-color="#085C41"/>
<stop offset="1" stop-color="#085C41" stop-opacity="0.5"/>
</linearGradient>
<linearGradient id="paint5_linear_874_1986" x1="52.4219" y1="17.3819" x2="93.0772" y2="17.3819" gradientUnits="userSpaceOnUse">
<stop stop-color="#085C41"/>
<stop offset="1" stop-color="#085C41" stop-opacity="0.5"/>
</linearGradient>
<linearGradient id="paint6_linear_874_1986" x1="49.1434" y1="18.8275" x2="9.37891" y2="18.8275" gradientUnits="userSpaceOnUse">
<stop offset="0.45" stop-color="#D9D9D9"/>
<stop offset="0.6" stop-color="#737373" stop-opacity="0"/>
</linearGradient>
<linearGradient id="paint7_linear_874_1986" x1="-5.04053" y1="19.4072" x2="43.971" y2="19.4072" gradientUnits="userSpaceOnUse">
<stop stop-color="#1BA577"/>
<stop offset="1" stop-color="#16BD86"/>
</linearGradient>
<clipPath id="clip0_874_1986">
<rect width="61" height="34" fill="white"/>
</clipPath>
</defs>
</svg>
